<svg xmlns="http://www.w3.org/2000/svg" viewBox="659.2 581.6 729.2 884.4" role="img" aria-label="Bytesac"><path d="M 791.924 582.396 C 803.406 581.08 831.043 581.816 844.146 581.792 L 953.757 581.889 L 1083.49 581.762 C 1107.95 581.82 1135.56 580.921 1159.75 583.564 C 1236.34 591.933 1307.43 646.159 1334.98 718.269 C 1355.54 771.885 1353.86 831.488 1330.31 883.861 C 1305.94 937.864 1261.81 975.55 1206.92 996.109 C 1164.65 1009.79 1132.31 1007.56 1089 1007.52 L 971.672 1007.55 L 852.964 1007.59 C 834.145 1007.57 797.788 1008.27 780.412 1005.26 C 756.447 1001.25 733.918 991.142 714.997 975.899 C 640.229 915.706 663.851 836.57 659.661 752.382 C 658.753 734.15 659.483 711.371 663.697 693.752 C 668.817 672.684 678.643 653.049 692.438 636.322 C 718.415 604.523 751.105 586.645 791.924 582.396 z" fill="#8AA6FF"/><path d="M 793.616 1039.43 C 820.499 1038.54 852.47 1039.15 879.613 1039.17 L 1030.81 1039.22 L 1131.97 1039.27 C 1152.26 1039.32 1179.98 1038.83 1199.59 1041 C 1219.82 1043.38 1239.61 1048.68 1258.33 1056.72 C 1308.93 1078.24 1351.09 1122.4 1372.37 1173.08 C 1420.53 1287.77 1355.79 1408.74 1243.23 1453.19 C 1196.92 1469.25 1148.88 1465.67 1100.58 1465.67 L 947.109 1465.57 L 842.916 1465.84 C 824.534 1465.89 793.687 1466.94 777.098 1463.91 C 752.314 1459.22 729.287 1447.84 710.512 1430.99 C 680.449 1404.48 662.323 1366.98 660.22 1326.95 C 657.982 1287.22 661.298 1245.33 659.677 1205.49 C 657.846 1160.49 664.384 1120.4 696.282 1086.25 C 723.48 1057.12 753.818 1041.5 793.616 1039.43 z" fill="#FFFFFF"/></svg>